<svg width="1618" height="783" viewBox="0 0 1618 783" fill="none" xmlns="http://www.w3.org/2000/svg">
<g opacity="0.2" filter="url(#filter0_f_28_6567)">
<path d="M1745.55 -571L1785.86 -530.695L1078.75 176.412L585.447 646L1038.45 136.107L1745.55 -571Z" fill="url(#paint0_linear_28_6567)"/>
</g>
<g opacity="0.32" filter="url(#filter1_f_28_6567)">
<path d="M1409.55 -554L1449.86 -513.695L742.752 193.412L249.447 663L702.447 153.107L1409.55 -554Z" fill="url(#paint1_linear_28_6567)"/>
</g>
<g opacity="0.32" filter="url(#filter2_f_28_6567)">
<path d="M1280.55 -727L1320.86 -686.695L613.752 20.4119L120.447 490L573.447 -19.8932L1280.55 -727Z" fill="url(#paint2_linear_28_6567)"/>
</g>
<defs>
<filter id="filter0_f_28_6567" x="465.447" y="-691" width="1440.41" height="1457" filterUnits="userSpaceOnUse" color-interpolation-filters="sRGB">
<feFlood flood-opacity="0" result="BackgroundImageFix"/>
<feBlend mode="normal" in="SourceGraphic" in2="BackgroundImageFix" result="shape"/>
<feGaussianBlur stdDeviation="60" result="effect1_foregroundBlur_28_6567"/>
</filter>
<filter id="filter1_f_28_6567" x="129.447" y="-674" width="1440.41" height="1457" filterUnits="userSpaceOnUse" color-interpolation-filters="sRGB">
<feFlood flood-opacity="0" result="BackgroundImageFix"/>
<feBlend mode="normal" in="SourceGraphic" in2="BackgroundImageFix" result="shape"/>
<feGaussianBlur stdDeviation="60" result="effect1_foregroundBlur_28_6567"/>
</filter>
<filter id="filter2_f_28_6567" x="0.446777" y="-847" width="1440.41" height="1457" filterUnits="userSpaceOnUse" color-interpolation-filters="sRGB">
<feFlood flood-opacity="0" result="BackgroundImageFix"/>
<feBlend mode="normal" in="SourceGraphic" in2="BackgroundImageFix" result="shape"/>
<feGaussianBlur stdDeviation="60" result="effect1_foregroundBlur_28_6567"/>
</filter>
<linearGradient id="paint0_linear_28_6567" x1="1765.71" y1="-550.847" x2="1058.6" y2="156.259" gradientUnits="userSpaceOnUse">
<stop stop-color="#FCF286"/>
<stop offset="1" stop-color="#FFEE31"/>
</linearGradient>
<linearGradient id="paint1_linear_28_6567" x1="1429.71" y1="-533.847" x2="722.6" y2="173.259" gradientUnits="userSpaceOnUse">
<stop stop-color="#FCF286"/>
<stop offset="1" stop-color="#FFEE31"/>
</linearGradient>
<linearGradient id="paint2_linear_28_6567" x1="1300.71" y1="-706.847" x2="593.6" y2="0.259271" gradientUnits="userSpaceOnUse">
<stop stop-color="#FCF286"/>
<stop offset="1" stop-color="#FFEE31"/>
</linearGradient>
</defs>
</svg>
