<svg width="25" height="24" viewBox="0 0 25 24" fill="none" xmlns="http://www.w3.org/2000/svg">
<path d="M21.9125 1.65296C21.7672 1.26053 21.3931 1 20.9746 1C20.5562 1 20.182 1.26053 20.0368 1.65296L19.6562 2.68154L18.6276 3.06215C18.2351 3.20736 17.9746 3.58156 17.9746 4C17.9746 4.41844 18.2351 4.79264 18.6276 4.93785L19.6562 5.31846L20.0368 6.34704C20.182 6.73947 20.5562 7 20.9746 7C21.3931 7 21.7672 6.73947 21.9125 6.34704L22.2931 5.31846L23.3216 4.93785C23.7141 4.79264 23.9746 4.41844 23.9746 4C23.9746 3.58156 23.7141 3.20736 23.3216 3.06215L22.2931 2.68154L21.9125 1.65296Z" fill="#2F2F2F"/>
<path d="M11.9125 3.65296C11.7672 3.26053 11.3931 3 10.9746 3C10.5562 3 10.182 3.26053 10.0368 3.65296L8.03561 9.061L2.62757 11.0621C2.23514 11.2074 1.97461 11.5816 1.97461 12C1.97461 12.4184 2.23514 12.7926 2.62757 12.9379L8.03561 14.939L10.0368 20.347C10.182 20.7395 10.5562 21 10.9746 21C11.3931 21 11.7672 20.7395 11.9125 20.347L13.9136 14.939L19.3216 12.9379C19.7141 12.7926 19.9746 12.4184 19.9746 12C19.9746 11.5816 19.7141 11.2074 19.3216 11.0621L13.9136 9.061L11.9125 3.65296Z" fill="#2F2F2F"/>
<path d="M21.9125 17.653C21.7672 17.2605 21.3931 17 20.9746 17C20.5562 17 20.182 17.2605 20.0368 17.653L19.6562 18.6815L18.6276 19.0621C18.2351 19.2074 17.9746 19.5816 17.9746 20C17.9746 20.4184 18.2351 20.7926 18.6276 20.9379L19.6562 21.3185L20.0368 22.347C20.182 22.7395 20.5562 23 20.9746 23C21.3931 23 21.7672 22.7395 21.9125 22.347L22.2931 21.3185L23.3216 20.9379C23.7141 20.7926 23.9746 20.4184 23.9746 20C23.9746 19.5816 23.7141 19.2074 23.3216 19.0621L22.2931 18.6815L21.9125 17.653Z" fill="#2F2F2F"/>
</svg>
