<svg width="349" height="384" viewBox="0 0 349 384" fill="none" xmlns="http://www.w3.org/2000/svg">
<g clip-path="url(#clip0_28_6575)">
<g filter="url(#filter1_i_28_6575)">
<rect x="0.65918" width="347.852" height="383.347" rx="24.3395" fill="url(#paint0_linear_28_6575)"/>
<rect x="0.65918" width="347.852" height="383.347" rx="24.3395" fill="black" fill-opacity="0.5"/>
</g>
<rect x="1.67332" y="1.01415" width="345.824" height="381.319" rx="23.3253" stroke="url(#paint1_linear_28_6575)" stroke-opacity="0.1" stroke-width="2.02829"/>
<path d="M415.92 301.217L415.926 301.219L491.758 322.968L579.764 348.208L527.595 348.27L468.403 348.34L409.796 348.409L352.106 348.478L294.595 348.546L235.171 348.616L176.664 348.685L118.089 348.755L58.7858 348.825L-0.378204 348.895L-57.8765 348.963L-116.102 349.032L-176.051 349.103L-230.874 349.168L-139.92 323.094L-139.916 323.093L10.2525 278.82L56.3976 265.215L91.504 254.865L123.724 245.365L150.27 237.539L176.663 229.758L201.849 237.28L228.919 245.365L260.724 254.864L295.378 265.214L340.929 278.819L415.92 301.217Z" stroke="url(#paint2_linear_28_6575)" stroke-width="1.07499"/>
<path d="M24.998 303.229L24.998 357.993" stroke="#FF9304" stroke-width="3.04244" stroke-linecap="round"/>
<path d="M36.3974 315.229V306.379H41.7043V307.329H37.4691V310.32H41.3067V311.271H37.4691V315.229H36.3974ZM43.54 315.229V306.379H46.5305C47.2249 306.379 47.7924 306.504 48.2333 306.755C48.6769 307.002 49.0054 307.338 49.2186 307.762C49.4318 308.185 49.5384 308.658 49.5384 309.179C49.5384 309.701 49.4318 310.175 49.2186 310.601C49.0083 311.027 48.6827 311.367 48.2419 311.621C47.8011 311.872 47.2364 311.997 46.5478 311.997H44.4043V311.046H46.5132C46.9886 311.046 47.3704 310.964 47.6585 310.8C47.9466 310.636 48.1555 310.414 48.2851 310.134C48.4176 309.852 48.4839 309.534 48.4839 309.179C48.4839 308.825 48.4176 308.508 48.2851 308.228C48.1555 307.949 47.9451 307.73 47.6542 307.571C47.3632 307.41 46.9771 307.329 46.496 307.329H44.6117V315.229H43.54ZM56.1051 308.591C56.0533 308.153 55.8429 307.813 55.4742 307.571C55.1054 307.329 54.6531 307.208 54.1172 307.208C53.7253 307.208 53.3825 307.272 53.0886 307.399C52.7976 307.525 52.57 307.7 52.4058 307.922C52.2445 308.143 52.1638 308.395 52.1638 308.678C52.1638 308.914 52.22 309.117 52.3323 309.287C52.4476 309.454 52.5945 309.594 52.7731 309.706C52.9518 309.816 53.139 309.907 53.335 309.979C53.5309 310.048 53.7109 310.104 53.8752 310.147L54.7741 310.389C55.0045 310.45 55.261 310.533 55.5433 310.64C55.8285 310.746 56.1008 310.892 56.3601 311.076C56.6223 311.258 56.8384 311.491 57.0083 311.776C57.1783 312.062 57.2633 312.412 57.2633 312.827C57.2633 313.305 57.138 313.737 56.8873 314.123C56.6396 314.509 56.2766 314.816 55.7983 315.044C55.3229 315.271 54.7452 315.385 54.0653 315.385C53.4315 315.385 52.8826 315.283 52.4188 315.078C51.9578 314.874 51.5948 314.588 51.3297 314.222C51.0675 313.857 50.9192 313.432 50.8846 312.948H51.9909C52.0197 313.282 52.1321 313.558 52.328 313.777C52.5268 313.993 52.7775 314.155 53.08 314.261C53.3854 314.365 53.7138 314.417 54.0653 314.417C54.4744 314.417 54.8418 314.351 55.1673 314.218C55.4929 314.083 55.7508 313.895 55.9409 313.656C56.1311 313.414 56.2261 313.132 56.2261 312.809C56.2261 312.515 56.144 312.276 55.9798 312.092C55.8156 311.908 55.5995 311.758 55.3316 311.642C55.0636 311.527 54.7741 311.426 54.4629 311.34L53.3738 311.029C52.6824 310.83 52.135 310.546 51.7316 310.177C51.3283 309.809 51.1266 309.326 51.1266 308.73C51.1266 308.234 51.2606 307.802 51.5285 307.433C51.7993 307.062 52.1623 306.773 52.6176 306.569C53.0757 306.361 53.587 306.258 54.1517 306.258C54.7222 306.258 55.2293 306.36 55.673 306.565C56.1166 306.766 56.4681 307.043 56.7274 307.394C56.9896 307.746 57.1279 308.145 57.1423 308.591H56.1051Z" fill="white" fill-opacity="0.5"/>
<path d="M37.369 354.399V351.311L45.5629 343.278C46.3465 342.487 46.9996 341.784 47.522 341.169C48.0445 340.555 48.4363 339.959 48.6975 339.383C48.9587 338.807 49.0893 338.192 49.0893 337.539C49.0893 336.794 48.9203 336.156 48.5823 335.626C48.2442 335.088 47.7794 334.673 47.1878 334.381C46.5962 334.089 45.924 333.943 45.171 333.943C44.3951 333.943 43.7151 334.105 43.1312 334.427C42.5473 334.742 42.094 335.192 41.7714 335.776C41.4564 336.36 41.2989 337.055 41.2989 337.862H37.2307C37.2307 336.364 37.5726 335.061 38.2564 333.955C38.9402 332.849 39.8814 331.992 41.0799 331.385C42.2861 330.778 43.669 330.475 45.2287 330.475C46.8113 330.475 48.202 330.77 49.4005 331.362C50.599 331.954 51.5287 332.764 52.1894 333.794C52.8578 334.823 53.192 335.999 53.192 337.32C53.192 338.204 53.023 339.072 52.6849 339.925C52.3469 340.777 51.7515 341.722 50.8987 342.76C50.0535 343.797 48.8665 345.053 47.3376 346.528L43.2695 350.665V350.827H53.5493V354.399H37.369ZM65.7305 354.722C64.194 354.722 62.8187 354.434 61.6048 353.858C60.3909 353.274 59.4267 352.475 58.7122 351.46C58.0054 350.446 57.6289 349.286 57.5828 347.98H61.7316C61.8084 348.948 62.2271 349.739 62.9877 350.354C63.7483 350.961 64.6626 351.265 65.7305 351.265C66.568 351.265 67.3132 351.072 67.9663 350.688C68.6193 350.304 69.1341 349.77 69.5105 349.086C69.887 348.403 70.0714 347.623 70.0637 346.747C70.0714 345.856 69.8832 345.064 69.499 344.373C69.1149 343.681 68.5886 343.14 67.9202 342.748C67.2518 342.349 66.4835 342.149 65.6153 342.149C64.9085 342.141 64.2132 342.272 63.5294 342.541C62.8456 342.809 62.304 343.163 61.9044 343.601L58.0438 342.967L59.2769 330.797H72.9678V334.37H62.8149L62.1349 340.628H62.2732C62.7111 340.113 63.3296 339.686 64.1286 339.348C64.9277 339.003 65.8035 338.83 66.7562 338.83C68.1852 338.83 69.4606 339.168 70.5823 339.844C71.704 340.512 72.5875 341.434 73.2329 342.61C73.8783 343.785 74.201 345.13 74.201 346.643C74.201 348.203 73.8399 349.594 73.1177 350.815C72.4031 352.029 71.4082 352.986 70.1328 353.685C68.8652 354.376 67.3977 354.722 65.7305 354.722ZM86.7049 354.722C85.5755 354.714 84.473 354.518 83.3974 354.134C82.3218 353.742 81.3538 353.108 80.4933 352.233C79.6328 351.349 78.949 350.177 78.4419 348.718C77.9349 347.25 77.6852 345.433 77.6928 343.267C77.6928 341.246 77.908 339.444 78.3382 337.862C78.7684 336.279 79.3869 334.942 80.1936 333.851C81.0003 332.753 81.9722 331.915 83.1093 331.339C84.2541 330.763 85.5333 330.475 86.9469 330.475C88.4297 330.475 89.7435 330.767 90.8883 331.35C92.0407 331.934 92.9703 332.733 93.6772 333.747C94.384 334.754 94.8219 335.891 94.9909 337.159H90.7845C90.5694 336.252 90.1276 335.53 89.4592 334.992C88.7985 334.447 87.9611 334.174 86.9469 334.174C85.3105 334.174 84.0505 334.885 83.1669 336.306C82.2911 337.727 81.8493 339.679 81.8416 342.16H82.003C82.3794 341.484 82.8673 340.904 83.4666 340.42C84.0658 339.936 84.7419 339.563 85.4948 339.302C86.2555 339.033 87.0583 338.899 87.9034 338.899C89.2864 338.899 90.5272 339.229 91.6258 339.89C92.7322 340.551 93.608 341.461 94.2534 342.621C94.8987 343.774 95.2176 345.095 95.2099 346.586C95.2176 348.138 94.8642 349.532 94.1497 350.769C93.4351 351.998 92.4402 352.966 91.1648 353.673C89.8895 354.38 88.4028 354.73 86.7049 354.722ZM86.6819 351.265C87.5193 351.265 88.2684 351.061 88.9291 350.654C89.5898 350.247 90.1123 349.697 90.4964 349.006C90.8806 348.314 91.0688 347.538 91.0611 346.678C91.0688 345.833 90.8844 345.068 90.5079 344.384C90.1392 343.701 89.6283 343.159 88.9752 342.76C88.3222 342.36 87.5769 342.16 86.7395 342.16C86.1172 342.16 85.5371 342.279 84.9993 342.518C84.4615 342.756 83.9928 343.086 83.5933 343.509C83.1938 343.924 82.8788 344.408 82.6483 344.961C82.4255 345.506 82.3103 346.09 82.3026 346.712C82.3103 347.534 82.5023 348.291 82.8788 348.983C83.2553 349.674 83.7739 350.227 84.4346 350.642C85.0953 351.057 85.8444 351.265 86.6819 351.265Z" fill="white"/>
<path d="M131.753 303.229L131.753 357.993" stroke="#FDE006" stroke-width="3.04244" stroke-linecap="round"/>
<path d="M143.392 315.229V306.379H146.383C147.077 306.379 147.645 306.504 148.086 306.755C148.529 307.002 148.858 307.338 149.071 307.762C149.284 308.185 149.391 308.658 149.391 309.179C149.391 309.701 149.284 310.175 149.071 310.601C148.861 311.027 148.535 311.367 148.094 311.621C147.654 311.872 147.089 311.997 146.4 311.997H144.257V311.046H146.366C146.841 311.046 147.223 310.964 147.511 310.8C147.799 310.636 148.008 310.414 148.138 310.134C148.27 309.852 148.336 309.534 148.336 309.179C148.336 308.825 148.27 308.508 148.138 308.228C148.008 307.949 147.798 307.73 147.507 307.571C147.216 307.41 146.83 307.329 146.348 307.329H144.464V315.229H143.392ZM150.979 315.229V308.591H151.999V315.229H150.979ZM151.498 307.485C151.299 307.485 151.127 307.417 150.983 307.282C150.842 307.147 150.772 306.984 150.772 306.794C150.772 306.603 150.842 306.441 150.983 306.305C151.127 306.17 151.299 306.102 151.498 306.102C151.697 306.102 151.867 306.17 152.008 306.305C152.152 306.441 152.224 306.603 152.224 306.794C152.224 306.984 152.152 307.147 152.008 307.282C151.867 307.417 151.697 307.485 151.498 307.485ZM154.887 311.236V315.229H153.867V308.591H154.852V309.629H154.939C155.094 309.291 155.331 309.021 155.648 308.816C155.964 308.609 156.374 308.505 156.875 308.505C157.324 308.505 157.718 308.597 158.055 308.782C158.392 308.963 158.654 309.24 158.841 309.611C159.029 309.98 159.122 310.447 159.122 311.012V315.229H158.102V311.081C158.102 310.559 157.967 310.153 157.696 309.862C157.425 309.568 157.054 309.421 156.581 309.421C156.255 309.421 155.964 309.492 155.708 309.633C155.455 309.774 155.254 309.98 155.107 310.251C154.96 310.522 154.887 310.85 154.887 311.236ZM163.665 317.857C163.173 317.857 162.749 317.794 162.395 317.667C162.04 317.543 161.745 317.379 161.509 317.174C161.275 316.972 161.09 316.756 160.951 316.526L161.764 315.955C161.856 316.076 161.973 316.215 162.114 316.37C162.255 316.529 162.448 316.666 162.693 316.781C162.941 316.899 163.265 316.958 163.665 316.958C164.201 316.958 164.643 316.828 164.992 316.569C165.341 316.31 165.515 315.904 165.515 315.35V314.002H165.429C165.354 314.123 165.247 314.273 165.109 314.452C164.973 314.627 164.777 314.784 164.521 314.923C164.267 315.058 163.925 315.126 163.492 315.126C162.957 315.126 162.475 314.999 162.049 314.745C161.625 314.492 161.29 314.123 161.042 313.639C160.797 313.155 160.675 312.567 160.675 311.876C160.675 311.196 160.794 310.604 161.033 310.1C161.273 309.593 161.605 309.201 162.032 308.924C162.458 308.645 162.951 308.505 163.51 308.505C163.942 308.505 164.285 308.577 164.538 308.721C164.795 308.862 164.991 309.024 165.126 309.205C165.264 309.384 165.371 309.531 165.446 309.646H165.55V308.591H166.535V315.42C166.535 315.99 166.405 316.454 166.146 316.811C165.89 317.171 165.544 317.435 165.109 317.602C164.677 317.772 164.195 317.857 163.665 317.857ZM163.631 314.21C164.04 314.21 164.386 314.116 164.668 313.929C164.95 313.741 165.165 313.472 165.312 313.12C165.459 312.769 165.532 312.348 165.532 311.859C165.532 311.38 165.46 310.958 165.316 310.592C165.172 310.226 164.959 309.94 164.677 309.732C164.394 309.525 164.046 309.421 163.631 309.421C163.199 309.421 162.838 309.531 162.55 309.75C162.265 309.969 162.05 310.262 161.906 310.631C161.765 311 161.695 311.409 161.695 311.859C161.695 312.32 161.767 312.727 161.911 313.082C162.058 313.433 162.274 313.71 162.559 313.911C162.847 314.11 163.204 314.21 163.631 314.21Z" fill="white" fill-opacity="0.5"/>
<path d="M144.118 354.399V351.311L152.311 343.278C153.095 342.487 153.748 341.784 154.271 341.169C154.793 340.555 155.185 339.959 155.446 339.383C155.707 338.807 155.838 338.192 155.838 337.539C155.838 336.794 155.669 336.156 155.331 335.626C154.993 335.088 154.528 334.673 153.936 334.381C153.345 334.089 152.673 333.943 151.92 333.943C151.144 333.943 150.464 334.105 149.88 334.427C149.296 334.742 148.843 335.192 148.52 335.776C148.205 336.36 148.047 337.055 148.047 337.862H143.979C143.979 336.364 144.321 335.061 145.005 333.955C145.689 332.849 146.63 331.992 147.829 331.385C149.035 330.778 150.418 330.475 151.977 330.475C153.56 330.475 154.951 330.77 156.149 331.362C157.348 331.954 158.277 332.764 158.938 333.794C159.606 334.823 159.941 335.999 159.941 337.32C159.941 338.204 159.772 339.072 159.434 339.925C159.096 340.777 158.5 341.722 157.647 342.76C156.802 343.797 155.615 345.053 154.086 346.528L150.018 350.665V350.827H160.298V354.399H144.118ZM173.874 330.797V354.399H169.598V334.958H169.46L163.94 338.484V334.566L169.805 330.797H173.874Z" fill="white"/>
<path d="M212.226 303.229L212.226 357.993" stroke="#79FD06" stroke-width="3.04244" stroke-linecap="round"/>
<path d="M228.334 308.591C228.282 308.153 228.071 307.813 227.703 307.571C227.334 307.329 226.882 307.208 226.346 307.208C225.954 307.208 225.611 307.272 225.317 307.399C225.026 307.525 224.799 307.7 224.634 307.922C224.473 308.143 224.392 308.395 224.392 308.678C224.392 308.914 224.448 309.117 224.561 309.287C224.676 309.454 224.823 309.594 225.002 309.706C225.18 309.816 225.368 309.907 225.563 309.979C225.759 310.048 225.939 310.104 226.104 310.147L227.003 310.389C227.233 310.45 227.489 310.533 227.772 310.64C228.057 310.746 228.329 310.892 228.589 311.076C228.851 311.258 229.067 311.491 229.237 311.776C229.407 312.062 229.492 312.412 229.492 312.827C229.492 313.305 229.366 313.737 229.116 314.123C228.868 314.509 228.505 314.816 228.027 315.044C227.551 315.271 226.974 315.385 226.294 315.385C225.66 315.385 225.111 315.283 224.647 315.078C224.186 314.874 223.823 314.588 223.558 314.222C223.296 313.857 223.148 313.432 223.113 312.948H224.219C224.248 313.282 224.361 313.558 224.557 313.777C224.755 313.993 225.006 314.155 225.308 314.261C225.614 314.365 225.942 314.417 226.294 314.417C226.703 314.417 227.07 314.351 227.396 314.218C227.721 314.083 227.979 313.895 228.169 313.656C228.36 313.414 228.455 313.132 228.455 312.809C228.455 312.515 228.373 312.276 228.208 312.092C228.044 311.908 227.828 311.758 227.56 311.642C227.292 311.527 227.003 311.426 226.691 311.34L225.602 311.029C224.911 310.83 224.363 310.546 223.96 310.177C223.557 309.809 223.355 309.326 223.355 308.73C223.355 308.234 223.489 307.802 223.757 307.433C224.028 307.062 224.391 306.773 224.846 306.569C225.304 306.361 225.816 306.258 226.38 306.258C226.951 306.258 227.458 306.36 227.901 306.565C228.345 306.766 228.697 307.043 228.956 307.394C229.218 307.746 229.356 308.145 229.371 308.591H228.334ZM231.773 317.719C231.6 317.719 231.446 317.704 231.31 317.675C231.175 317.65 231.081 317.624 231.029 317.598L231.289 316.699C231.536 316.762 231.755 316.785 231.945 316.768C232.136 316.751 232.304 316.666 232.451 316.513C232.601 316.363 232.738 316.12 232.862 315.783L233.052 315.264L230.597 308.591H231.703L233.536 313.881H233.605L235.437 308.591H236.544L233.726 316.197C233.599 316.54 233.442 316.824 233.255 317.049C233.068 317.276 232.85 317.445 232.602 317.554C232.357 317.664 232.081 317.719 231.773 317.719ZM242.592 310.078L241.676 310.337C241.618 310.185 241.533 310.036 241.421 309.892C241.311 309.745 241.161 309.624 240.971 309.529C240.781 309.434 240.538 309.387 240.241 309.387C239.835 309.387 239.496 309.48 239.225 309.667C238.957 309.852 238.823 310.087 238.823 310.372C238.823 310.625 238.916 310.826 239.1 310.973C239.284 311.12 239.572 311.242 239.964 311.34L240.95 311.582C241.543 311.726 241.985 311.946 242.276 312.243C242.567 312.537 242.713 312.916 242.713 313.38C242.713 313.76 242.603 314.1 242.384 314.4C242.168 314.699 241.866 314.936 241.477 315.108C241.088 315.281 240.636 315.368 240.12 315.368C239.443 315.368 238.882 315.221 238.439 314.927C237.995 314.633 237.714 314.204 237.596 313.639L238.564 313.397C238.656 313.754 238.831 314.022 239.087 314.201C239.346 314.38 239.685 314.469 240.103 314.469C240.578 314.469 240.955 314.368 241.235 314.166C241.517 313.962 241.658 313.717 241.658 313.432C241.658 313.201 241.578 313.008 241.416 312.853C241.255 312.694 241.007 312.576 240.673 312.498L239.567 312.239C238.959 312.095 238.512 311.872 238.227 311.569C237.945 311.264 237.803 310.882 237.803 310.424C237.803 310.049 237.909 309.718 238.119 309.43C238.332 309.142 238.622 308.916 238.988 308.751C239.356 308.587 239.774 308.505 240.241 308.505C240.898 308.505 241.413 308.649 241.788 308.937C242.165 309.225 242.433 309.606 242.592 310.078ZM247.135 308.591V309.456H243.695V308.591H247.135ZM244.698 307.001H245.717V313.328C245.717 313.616 245.759 313.832 245.843 313.976C245.929 314.117 246.039 314.212 246.171 314.261C246.307 314.307 246.449 314.331 246.599 314.331C246.711 314.331 246.804 314.325 246.876 314.313C246.948 314.299 247.005 314.287 247.048 314.279L247.256 315.195C247.187 315.221 247.09 315.247 246.966 315.273C246.842 315.301 246.685 315.316 246.495 315.316C246.207 315.316 245.925 315.254 245.648 315.13C245.375 315.006 245.147 314.817 244.965 314.564C244.787 314.31 244.698 313.991 244.698 313.604V307.001ZM251.381 315.368C250.741 315.368 250.19 315.227 249.726 314.944C249.265 314.659 248.909 314.261 248.658 313.751C248.411 313.239 248.287 312.642 248.287 311.962C248.287 311.282 248.411 310.683 248.658 310.164C248.909 309.643 249.258 309.237 249.704 308.946C250.154 308.652 250.678 308.505 251.277 308.505C251.623 308.505 251.964 308.563 252.301 308.678C252.639 308.793 252.945 308.98 253.222 309.24C253.499 309.496 253.719 309.836 253.883 310.26C254.047 310.683 254.13 311.205 254.13 311.824V312.256H249.013V311.375H253.092C253.092 311 253.017 310.666 252.868 310.372C252.721 310.078 252.51 309.846 252.237 309.676C251.966 309.506 251.646 309.421 251.277 309.421C250.871 309.421 250.519 309.522 250.223 309.724C249.929 309.922 249.703 310.182 249.544 310.502C249.386 310.821 249.307 311.164 249.307 311.53V312.118C249.307 312.619 249.393 313.044 249.566 313.393C249.742 313.738 249.985 314.002 250.296 314.184C250.607 314.362 250.969 314.452 251.381 314.452C251.649 314.452 251.891 314.414 252.107 314.339C252.326 314.261 252.515 314.146 252.673 313.993C252.832 313.838 252.954 313.645 253.04 313.414L254.026 313.691C253.922 314.025 253.748 314.319 253.503 314.573C253.258 314.823 252.955 315.019 252.595 315.16C252.235 315.299 251.83 315.368 251.381 315.368ZM255.681 315.229V308.591H256.666V309.629H256.753C256.891 309.274 257.114 308.999 257.423 308.803C257.731 308.604 258.101 308.505 258.533 308.505C258.971 308.505 259.336 308.604 259.627 308.803C259.921 308.999 260.15 309.274 260.314 309.629H260.383C260.553 309.286 260.808 309.013 261.148 308.812C261.488 308.607 261.895 308.505 262.371 308.505C262.964 308.505 263.45 308.691 263.827 309.062C264.205 309.431 264.393 310.006 264.393 310.787V315.229H263.373V310.787C263.373 310.297 263.24 309.947 262.972 309.737C262.704 309.526 262.388 309.421 262.025 309.421C261.558 309.421 261.197 309.562 260.94 309.845C260.684 310.124 260.556 310.479 260.556 310.908V315.229H259.519V310.683C259.519 310.306 259.396 310.002 259.151 309.771C258.906 309.538 258.591 309.421 258.205 309.421C257.94 309.421 257.692 309.492 257.461 309.633C257.234 309.774 257.049 309.97 256.908 310.221C256.77 310.468 256.701 310.755 256.701 311.081V315.229H255.681ZM270.701 306.379V315.229H269.681V306.379H270.701ZM275.266 315.368C274.666 315.368 274.141 315.225 273.688 314.94C273.239 314.655 272.887 314.256 272.634 313.743C272.383 313.23 272.258 312.631 272.258 311.945C272.258 311.254 272.383 310.65 272.634 310.134C272.887 309.618 273.239 309.218 273.688 308.933C274.141 308.648 274.666 308.505 275.266 308.505C275.865 308.505 276.389 308.648 276.839 308.933C277.291 309.218 277.642 309.618 277.893 310.134C278.147 310.65 278.273 311.254 278.273 311.945C278.273 312.631 278.147 313.23 277.893 313.743C277.642 314.256 277.291 314.655 276.839 314.94C276.389 315.225 275.865 315.368 275.266 315.368ZM275.266 314.452C275.721 314.452 276.095 314.335 276.389 314.101C276.683 313.868 276.901 313.561 277.042 313.181C277.183 312.801 277.254 312.389 277.254 311.945C277.254 311.501 277.183 311.088 277.042 310.705C276.901 310.321 276.683 310.012 276.389 309.776C276.095 309.539 275.721 309.421 275.266 309.421C274.81 309.421 274.436 309.539 274.142 309.776C273.848 310.012 273.631 310.321 273.489 310.705C273.348 311.088 273.278 311.501 273.278 311.945C273.278 312.389 273.348 312.801 273.489 313.181C273.631 313.561 273.848 313.868 274.142 314.101C274.436 314.335 274.81 314.452 275.266 314.452ZM281.784 315.385C281.363 315.385 280.981 315.306 280.638 315.147C280.296 314.986 280.023 314.754 279.822 314.452C279.62 314.146 279.519 313.777 279.519 313.345C279.519 312.965 279.594 312.657 279.744 312.42C279.894 312.181 280.094 311.994 280.345 311.859C280.595 311.723 280.872 311.622 281.174 311.556C281.48 311.487 281.787 311.432 282.095 311.392C282.498 311.34 282.825 311.301 283.076 311.275C283.329 311.246 283.514 311.199 283.629 311.133C283.747 311.066 283.806 310.951 283.806 310.787V310.752C283.806 310.326 283.69 309.994 283.456 309.758C283.226 309.522 282.876 309.404 282.406 309.404C281.919 309.404 281.537 309.51 281.261 309.724C280.984 309.937 280.79 310.164 280.677 310.406L279.709 310.061C279.882 309.657 280.113 309.343 280.401 309.119C280.692 308.891 281.009 308.733 281.352 308.643C281.697 308.551 282.037 308.505 282.371 308.505C282.585 308.505 282.83 308.531 283.106 308.583C283.386 308.632 283.655 308.734 283.914 308.89C284.176 309.045 284.394 309.28 284.567 309.594C284.74 309.908 284.826 310.329 284.826 310.856V315.229H283.806V314.331H283.754C283.685 314.475 283.57 314.629 283.409 314.793C283.247 314.957 283.033 315.097 282.765 315.212C282.497 315.327 282.17 315.385 281.784 315.385ZM281.939 314.469C282.343 314.469 282.683 314.39 282.959 314.231C283.239 314.073 283.449 313.868 283.59 313.617C283.734 313.367 283.806 313.103 283.806 312.827V311.893C283.763 311.945 283.668 311.993 283.521 312.036C283.377 312.076 283.21 312.112 283.02 312.144C282.832 312.173 282.649 312.199 282.471 312.222C282.295 312.242 282.152 312.259 282.043 312.273C281.778 312.308 281.53 312.364 281.3 312.442C281.072 312.517 280.888 312.631 280.746 312.783C280.608 312.933 280.539 313.138 280.539 313.397C280.539 313.751 280.67 314.019 280.932 314.201C281.197 314.38 281.533 314.469 281.939 314.469ZM289.194 315.368C288.641 315.368 288.153 315.228 287.729 314.949C287.306 314.666 286.974 314.269 286.735 313.756C286.496 313.24 286.377 312.631 286.377 311.928C286.377 311.23 286.496 310.625 286.735 310.113C286.974 309.6 287.307 309.204 287.734 308.924C288.16 308.645 288.653 308.505 289.212 308.505C289.644 308.505 289.985 308.577 290.236 308.721C290.489 308.862 290.682 309.024 290.815 309.205C290.95 309.384 291.055 309.531 291.13 309.646H291.217V306.379H292.237V315.229H291.251V314.21H291.13C291.055 314.331 290.949 314.483 290.811 314.668C290.672 314.849 290.475 315.012 290.218 315.156C289.962 315.297 289.621 315.368 289.194 315.368ZM289.333 314.452C289.742 314.452 290.087 314.345 290.37 314.132C290.652 313.916 290.867 313.617 291.014 313.237C291.161 312.854 291.234 312.412 291.234 311.91C291.234 311.415 291.162 310.981 291.018 310.61C290.874 310.235 290.661 309.944 290.378 309.737C290.096 309.526 289.747 309.421 289.333 309.421C288.9 309.421 288.54 309.532 288.252 309.754C287.967 309.973 287.752 310.271 287.608 310.648C287.467 311.023 287.396 311.444 287.396 311.91C287.396 312.383 287.468 312.812 287.613 313.198C287.759 313.581 287.976 313.887 288.261 314.114C288.549 314.339 288.906 314.452 289.333 314.452Z" fill="white" fill-opacity="0.5"/>
<path d="M233.142 354.722C231.605 354.722 230.23 354.434 229.016 353.858C227.802 353.274 226.838 352.475 226.123 351.46C225.416 350.446 225.04 349.286 224.994 347.98H229.143C229.219 348.948 229.638 349.739 230.399 350.354C231.159 350.961 232.074 351.265 233.142 351.265C233.979 351.265 234.724 351.072 235.377 350.688C236.03 350.304 236.545 349.77 236.922 349.086C237.298 348.403 237.482 347.623 237.475 346.747C237.482 345.856 237.294 345.064 236.91 344.373C236.526 343.681 236 343.14 235.331 342.748C234.663 342.349 233.894 342.149 233.026 342.149C232.319 342.141 231.624 342.272 230.94 342.541C230.257 342.809 229.715 343.163 229.315 343.601L225.455 342.967L226.688 330.797H240.379V334.37H230.226L229.546 340.628H229.684C230.122 340.113 230.741 339.686 231.54 339.348C232.339 339.003 233.214 338.83 234.167 338.83C235.596 338.83 236.872 339.168 237.993 339.844C239.115 340.512 239.999 341.434 240.644 342.61C241.289 343.785 241.612 345.13 241.612 346.643C241.612 348.203 241.251 349.594 240.529 350.815C239.814 352.029 238.819 352.986 237.544 353.685C236.276 354.376 234.809 354.722 233.142 354.722ZM253.943 354.722C252.283 354.722 250.808 354.438 249.518 353.869C248.235 353.301 247.22 352.509 246.475 351.495C245.73 350.481 245.334 349.309 245.288 347.98H249.621C249.66 348.618 249.871 349.175 250.255 349.651C250.639 350.12 251.15 350.485 251.788 350.746C252.426 351.007 253.14 351.138 253.931 351.138C254.777 351.138 255.526 350.992 256.179 350.7C256.832 350.4 257.343 349.985 257.711 349.455C258.08 348.925 258.261 348.314 258.253 347.623C258.261 346.908 258.076 346.278 257.7 345.733C257.323 345.187 256.778 344.761 256.063 344.454C255.357 344.146 254.504 343.993 253.505 343.993H251.419V340.697H253.505C254.327 340.697 255.046 340.555 255.66 340.27C256.282 339.986 256.77 339.587 257.124 339.072C257.477 338.549 257.65 337.946 257.642 337.262C257.65 336.594 257.5 336.014 257.193 335.522C256.893 335.023 256.467 334.635 255.914 334.358C255.368 334.082 254.727 333.943 253.989 333.943C253.267 333.943 252.598 334.074 251.984 334.335C251.369 334.596 250.874 334.969 250.497 335.453C250.121 335.929 249.921 336.498 249.898 337.159H245.784C245.814 335.837 246.195 334.677 246.925 333.678C247.662 332.672 248.646 331.888 249.875 331.327C251.104 330.759 252.483 330.475 254.012 330.475C255.587 330.475 256.955 330.77 258.115 331.362C259.283 331.946 260.185 332.733 260.823 333.724C261.461 334.716 261.78 335.81 261.78 337.009C261.787 338.338 261.395 339.452 260.604 340.351C259.82 341.25 258.791 341.838 257.516 342.114V342.299C259.175 342.529 260.447 343.144 261.33 344.142C262.221 345.134 262.663 346.367 262.655 347.842C262.655 349.163 262.279 350.346 261.526 351.391C260.781 352.429 259.751 353.243 258.438 353.834C257.131 354.426 255.633 354.722 253.943 354.722ZM279.23 349.974V348.729C279.23 347.815 279.422 346.974 279.807 346.205C280.198 345.437 280.767 344.819 281.512 344.35C282.257 343.881 283.16 343.647 284.22 343.647C285.311 343.647 286.226 343.881 286.963 344.35C287.701 344.811 288.258 345.426 288.634 346.194C289.018 346.962 289.21 347.807 289.21 348.729V349.974C289.21 350.888 289.018 351.729 288.634 352.498C288.25 353.266 287.685 353.884 286.94 354.353C286.203 354.822 285.296 355.056 284.22 355.056C283.145 355.056 282.234 354.822 281.489 354.353C280.744 353.884 280.179 353.266 279.795 352.498C279.419 351.729 279.23 350.888 279.23 349.974ZM282.238 348.729V349.974C282.238 350.581 282.384 351.138 282.676 351.645C282.968 352.152 283.483 352.405 284.22 352.405C284.966 352.405 285.477 352.156 285.753 351.656C286.037 351.149 286.18 350.588 286.18 349.974V348.729C286.18 348.115 286.045 347.554 285.776 347.047C285.507 346.532 284.989 346.274 284.22 346.274C283.498 346.274 282.987 346.532 282.688 347.047C282.388 347.554 282.238 348.115 282.238 348.729ZM267.233 336.467V335.223C267.233 334.301 267.429 333.456 267.821 332.687C268.213 331.919 268.782 331.304 269.527 330.843C270.272 330.375 271.175 330.14 272.235 330.14C273.318 330.14 274.229 330.375 274.966 330.843C275.712 331.304 276.272 331.919 276.649 332.687C277.025 333.456 277.214 334.301 277.214 335.223V336.467C277.214 337.389 277.022 338.234 276.637 339.003C276.261 339.763 275.7 340.374 274.955 340.835C274.21 341.296 273.303 341.526 272.235 341.526C271.152 341.526 270.238 341.296 269.492 340.835C268.755 340.374 268.194 339.759 267.81 338.991C267.426 338.223 267.233 337.382 267.233 336.467ZM270.264 335.223V336.467C270.264 337.082 270.407 337.643 270.691 338.15C270.983 338.649 271.498 338.899 272.235 338.899C272.973 338.899 273.48 338.649 273.756 338.15C274.041 337.643 274.183 337.082 274.183 336.467V335.223C274.183 334.608 274.048 334.047 273.779 333.54C273.51 333.025 272.996 332.768 272.235 332.768C271.505 332.768 270.994 333.025 270.702 333.54C270.41 334.055 270.264 334.616 270.264 335.223ZM268.547 354.399L284.774 330.797H287.655L271.428 354.399H268.547Z" fill="white"/>
<rect x="128.287" y="88.2307" width="92.5941" height="30.4244" rx="15.2122" fill="url(#paint3_linear_28_6575)" fill-opacity="0.11"/>
<rect x="128.794" y="88.7377" width="91.58" height="29.4102" rx="14.7051" stroke="url(#paint4_linear_28_6575)" stroke-opacity="0.1" stroke-width="1.01415"/>
<path d="M147.555 107.584V99.3018" stroke="white" stroke-width="1.62263" stroke-linecap="round" stroke-linejoin="round"/>
<path d="M143.414 103.443L147.555 99.3018L151.696 103.443" stroke="white" stroke-width="1.62263" stroke-linecap="round" stroke-linejoin="round"/>
<path d="M159.819 107.253V105.553L164.827 97.6419H166.244V100.062H165.38L162.009 105.404V105.496H168.998V107.253H159.819ZM165.449 109.443V106.735L165.472 105.974V97.6419H167.489V109.443H165.449ZM170.839 109.443V107.899L174.936 103.882C175.328 103.487 175.655 103.135 175.916 102.828C176.177 102.521 176.373 102.223 176.504 101.935C176.634 101.647 176.7 101.339 176.7 101.013C176.7 100.64 176.615 100.321 176.446 100.056C176.277 99.7873 176.045 99.5799 175.749 99.4339C175.453 99.2879 175.117 99.215 174.74 99.215C174.352 99.215 174.012 99.2956 173.721 99.457C173.429 99.6145 173.202 99.8392 173.041 100.131C172.883 100.423 172.804 100.771 172.804 101.174H170.77C170.77 100.425 170.941 99.7739 171.283 99.2207C171.625 98.6675 172.096 98.2392 172.695 97.9357C173.298 97.6323 173.989 97.4805 174.769 97.4805C175.561 97.4805 176.256 97.6284 176.855 97.9242C177.454 98.22 177.919 98.6253 178.25 99.14C178.584 99.6548 178.751 100.243 178.751 100.903C178.751 101.345 178.666 101.779 178.497 102.206C178.328 102.632 178.031 103.104 177.604 103.623C177.182 104.142 176.588 104.77 175.824 105.507L173.79 107.576V107.657H178.93V109.443H170.839ZM182.226 109.57C181.876 109.57 181.576 109.447 181.327 109.201C181.077 108.955 180.954 108.655 180.958 108.302C180.954 107.956 181.077 107.66 181.327 107.415C181.576 107.169 181.876 107.046 182.226 107.046C182.564 107.046 182.857 107.169 183.107 107.415C183.361 107.66 183.489 107.956 183.493 108.302C183.489 108.536 183.428 108.749 183.309 108.942C183.194 109.134 183.04 109.287 182.848 109.403C182.66 109.514 182.452 109.57 182.226 109.57ZM189.463 109.604C188.633 109.604 187.895 109.462 187.25 109.178C186.609 108.894 186.102 108.498 185.729 107.991C185.356 107.484 185.158 106.898 185.135 106.233H187.302C187.321 106.552 187.427 106.831 187.619 107.069C187.811 107.303 188.066 107.486 188.385 107.616C188.704 107.747 189.061 107.812 189.457 107.812C189.88 107.812 190.254 107.739 190.581 107.593C190.907 107.443 191.163 107.236 191.347 106.971C191.531 106.706 191.622 106.4 191.618 106.055C191.622 105.697 191.53 105.382 191.341 105.11C191.153 104.837 190.88 104.624 190.523 104.47C190.17 104.316 189.743 104.24 189.244 104.24H188.201V102.592H189.244C189.655 102.592 190.014 102.521 190.321 102.378C190.633 102.236 190.876 102.037 191.053 101.779C191.23 101.518 191.316 101.216 191.312 100.874C191.316 100.54 191.241 100.25 191.088 100.004C190.938 99.7547 190.725 99.5607 190.448 99.4224C190.175 99.2841 189.855 99.215 189.486 99.215C189.125 99.215 188.791 99.2803 188.483 99.4109C188.176 99.5415 187.928 99.7278 187.74 99.9698C187.552 100.208 187.452 100.492 187.44 100.823H185.383C185.399 100.162 185.589 99.5818 185.954 99.0824C186.322 98.5792 186.814 98.1874 187.429 97.9069C188.043 97.6227 188.733 97.4805 189.497 97.4805C190.285 97.4805 190.969 97.6284 191.549 97.9242C192.133 98.2162 192.584 98.6099 192.903 99.1055C193.222 99.601 193.381 100.148 193.381 100.748C193.385 101.412 193.189 101.969 192.793 102.419C192.402 102.868 191.887 103.162 191.249 103.3V103.393C192.079 103.508 192.715 103.815 193.156 104.314C193.602 104.81 193.823 105.427 193.819 106.164C193.819 106.825 193.631 107.416 193.254 107.939C192.882 108.458 192.367 108.865 191.71 109.16C191.057 109.456 190.308 109.604 189.463 109.604ZM202.106 107.23V106.608C202.106 106.151 202.203 105.73 202.395 105.346C202.591 104.962 202.875 104.653 203.247 104.418C203.62 104.184 204.071 104.067 204.602 104.067C205.147 104.067 205.604 104.184 205.973 104.418C206.342 104.649 206.62 104.956 206.808 105.34C207.001 105.724 207.097 106.147 207.097 106.608V107.23C207.097 107.687 207.001 108.108 206.808 108.492C206.616 108.876 206.334 109.185 205.961 109.42C205.593 109.654 205.139 109.771 204.602 109.771C204.064 109.771 203.609 109.654 203.236 109.42C202.863 109.185 202.581 108.876 202.389 108.492C202.201 108.108 202.106 107.687 202.106 107.23ZM203.61 106.608V107.23C203.61 107.534 203.683 107.812 203.829 108.066C203.975 108.319 204.233 108.446 204.602 108.446C204.974 108.446 205.23 108.321 205.368 108.071C205.51 107.818 205.581 107.537 205.581 107.23V106.608C205.581 106.301 205.514 106.02 205.379 105.767C205.245 105.509 204.986 105.38 204.602 105.38C204.24 105.38 203.985 105.509 203.835 105.767C203.685 106.02 203.61 106.301 203.61 106.608ZM196.108 100.477V99.8546C196.108 99.3936 196.206 98.971 196.402 98.5869C196.598 98.2027 196.882 97.8954 197.255 97.6649C197.627 97.4306 198.079 97.3134 198.609 97.3134C199.15 97.3134 199.606 97.4306 199.974 97.6649C200.347 97.8954 200.628 98.2027 200.816 98.5869C201.004 98.971 201.098 99.3936 201.098 99.8546V100.477C201.098 100.938 201.002 101.36 200.81 101.745C200.622 102.125 200.341 102.43 199.969 102.661C199.596 102.891 199.143 103.006 198.609 103.006C198.067 103.006 197.61 102.891 197.237 102.661C196.869 102.43 196.588 102.123 196.396 101.739C196.204 101.355 196.108 100.934 196.108 100.477ZM197.624 99.8546V100.477C197.624 100.784 197.695 101.065 197.837 101.318C197.983 101.568 198.24 101.693 198.609 101.693C198.978 101.693 199.231 101.568 199.369 101.318C199.512 101.065 199.583 100.784 199.583 100.477V99.8546C199.583 99.5472 199.515 99.2668 199.381 99.0133C199.247 98.7559 198.989 98.6272 198.609 98.6272C198.244 98.6272 197.988 98.7559 197.842 99.0133C197.696 99.2707 197.624 99.5511 197.624 99.8546ZM196.765 109.443L204.878 97.6419H206.319L198.205 109.443H196.765Z" fill="white"/>
<path d="M94.5365 163.108V154.257H97.8555C98.5354 154.257 99.1059 154.384 99.5669 154.637C100.031 154.891 100.381 155.239 100.617 155.683C100.856 156.124 100.976 156.625 100.976 157.187C100.976 157.755 100.856 158.259 100.617 158.7C100.378 159.14 100.025 159.488 99.5582 159.741C99.0915 159.992 98.5167 160.117 97.8339 160.117H95.6342V158.799H97.6178C98.0154 158.799 98.341 158.73 98.5945 158.592C98.848 158.453 99.0353 158.263 99.1563 158.021C99.2802 157.779 99.3421 157.501 99.3421 157.187C99.3421 156.873 99.2802 156.596 99.1563 156.357C99.0353 156.118 98.8466 155.932 98.5902 155.8C98.3366 155.664 98.0096 155.597 97.6092 155.597H96.1398V163.108H94.5365ZM103.585 163.108V154.257H109.342V155.601H105.189V158.004H109.044V159.348H105.189V161.764H109.376V163.108H103.585ZM112.194 163.108V154.257H115.514C116.193 154.257 116.764 154.375 117.225 154.611C117.689 154.848 118.039 155.179 118.275 155.605C118.514 156.029 118.634 156.523 118.634 157.088C118.634 157.655 118.513 158.148 118.271 158.566C118.032 158.98 117.679 159.302 117.212 159.529C116.745 159.754 116.172 159.866 115.492 159.866H113.128V158.535H115.276C115.673 158.535 115.999 158.481 116.253 158.371C116.506 158.259 116.693 158.096 116.814 157.883C116.938 157.667 117 157.402 117 157.088C117 156.774 116.938 156.506 116.814 156.284C116.69 156.059 116.502 155.889 116.248 155.774C115.995 155.656 115.668 155.597 115.267 155.597H113.798V163.108H112.194ZM116.767 159.097L118.958 163.108H117.169L115.017 159.097H116.767ZM121.327 163.108V154.257H126.997V155.601H122.93V158.004H126.608V159.348H122.93V163.108H121.327ZM137.583 158.682C137.583 159.636 137.404 160.453 137.047 161.133C136.693 161.81 136.209 162.328 135.595 162.688C134.984 163.049 134.291 163.229 133.516 163.229C132.741 163.229 132.047 163.049 131.433 162.688C130.822 162.325 130.338 161.805 129.981 161.128C129.627 160.448 129.45 159.633 129.45 158.682C129.45 157.729 129.627 156.913 129.981 156.236C130.338 155.556 130.822 155.036 131.433 154.676C132.047 154.316 132.741 154.136 133.516 154.136C134.291 154.136 134.984 154.316 135.595 154.676C136.209 155.036 136.693 155.556 137.047 156.236C137.404 156.913 137.583 157.729 137.583 158.682ZM135.971 158.682C135.971 158.011 135.866 157.445 135.655 156.984C135.448 156.52 135.16 156.17 134.791 155.934C134.422 155.695 133.997 155.575 133.516 155.575C133.035 155.575 132.61 155.695 132.241 155.934C131.873 156.17 131.583 156.52 131.373 156.984C131.165 157.445 131.061 158.011 131.061 158.682C131.061 159.354 131.165 159.921 131.373 160.385C131.583 160.846 131.873 161.196 132.241 161.435C132.61 161.671 133.035 161.79 133.516 161.79C133.997 161.79 134.422 161.671 134.791 161.435C135.16 161.196 135.448 160.846 135.655 160.385C135.866 159.921 135.971 159.354 135.971 158.682ZM140.316 163.108V154.257H143.635C144.315 154.257 144.885 154.375 145.346 154.611C145.81 154.848 146.16 155.179 146.396 155.605C146.635 156.029 146.755 156.523 146.755 157.088C146.755 157.655 146.634 158.148 146.392 158.566C146.153 158.98 145.8 159.302 145.333 159.529C144.866 159.754 144.293 159.866 143.613 159.866H141.249V158.535H143.397C143.795 158.535 144.12 158.481 144.374 158.371C144.627 158.259 144.814 158.096 144.935 157.883C145.059 157.667 145.121 157.402 145.121 157.088C145.121 156.774 145.059 156.506 144.935 156.284C144.812 156.059 144.623 155.889 144.369 155.774C144.116 155.656 143.789 155.597 143.388 155.597H141.919V163.108H140.316ZM144.888 159.097L147.079 163.108H145.29L143.138 159.097H144.888ZM149.448 154.257H151.41L154.037 160.67H154.141L156.769 154.257H158.731V163.108H157.192V157.027H157.11L154.664 163.082H153.514L151.068 157.014H150.986V163.108H149.448V154.257ZM162.83 163.108H161.119L164.235 154.257H166.214L169.334 163.108H167.623L165.259 156.072H165.19L162.83 163.108ZM162.886 159.637H167.554V160.925H162.886V159.637ZM178.99 154.257V163.108H177.564L173.394 157.079H173.32V163.108H171.717V154.257H173.152L177.318 160.29H177.396V154.257H178.99ZM189.53 157.243H187.914C187.868 156.978 187.783 156.743 187.659 156.539C187.535 156.331 187.381 156.156 187.196 156.012C187.012 155.867 186.802 155.759 186.565 155.687C186.332 155.612 186.08 155.575 185.809 155.575C185.328 155.575 184.902 155.696 184.53 155.938C184.158 156.177 183.867 156.529 183.657 156.993C183.447 157.454 183.341 158.017 183.341 158.682C183.341 159.359 183.447 159.93 183.657 160.394C183.87 160.855 184.161 161.203 184.53 161.44C184.902 161.673 185.327 161.79 185.805 161.79C186.07 161.79 186.318 161.755 186.548 161.686C186.781 161.614 186.99 161.509 187.175 161.37C187.362 161.232 187.519 161.062 187.646 160.86C187.775 160.659 187.865 160.428 187.914 160.169L189.53 160.178C189.47 160.598 189.338 160.993 189.137 161.362C188.938 161.731 188.677 162.056 188.355 162.338C188.032 162.618 187.654 162.837 187.222 162.995C186.79 163.151 186.31 163.229 185.783 163.229C185.005 163.229 184.311 163.049 183.7 162.688C183.089 162.328 182.608 161.808 182.257 161.128C181.905 160.448 181.729 159.633 181.729 158.682C181.729 157.729 181.907 156.913 182.261 156.236C182.615 155.556 183.098 155.036 183.709 154.676C184.32 154.316 185.011 154.136 185.783 154.136C186.276 154.136 186.734 154.205 187.157 154.343C187.581 154.482 187.958 154.685 188.29 154.953C188.621 155.218 188.893 155.543 189.107 155.929C189.323 156.313 189.464 156.751 189.53 157.243ZM192.215 163.108V154.257H197.972V155.601H193.819V158.004H197.674V159.348H193.819V161.764H198.006V163.108H192.215ZM205.06 163.108V154.257H208.379C209.059 154.257 209.63 154.375 210.09 154.611C210.554 154.848 210.904 155.179 211.141 155.605C211.38 156.029 211.499 156.523 211.499 157.088C211.499 157.655 211.378 158.148 211.136 158.566C210.897 158.98 210.544 159.302 210.078 159.529C209.611 159.754 209.037 159.866 208.358 159.866H205.994V158.535H208.141C208.539 158.535 208.865 158.481 209.118 158.371C209.372 158.259 209.559 158.096 209.68 157.883C209.804 157.667 209.866 157.402 209.866 157.088C209.866 156.774 209.804 156.506 209.68 156.284C209.556 156.059 209.367 155.889 209.114 155.774C208.86 155.656 208.533 155.597 208.133 155.597H206.663V163.108H205.06ZM209.632 159.097L211.823 163.108H210.034L207.882 159.097H209.632ZM215.329 163.108H213.617L216.733 154.257H218.713L221.833 163.108H220.121L217.758 156.072H217.688L215.329 163.108ZM215.385 159.637H220.052V160.925H215.385V159.637ZM222.757 155.601V154.257H229.819V155.601H227.083V163.108H225.493V155.601H222.757ZM234 154.257V163.108H232.397V154.257H234ZM244.227 154.257V163.108H242.801L238.63 157.079H238.557V163.108H236.953V154.257H238.388L242.554 160.29H242.632V154.257H244.227ZM253.12 157.083C253.048 156.85 252.949 156.641 252.822 156.457C252.698 156.269 252.548 156.109 252.372 155.977C252.199 155.844 252.001 155.745 251.776 155.679C251.551 155.61 251.306 155.575 251.041 155.575C250.566 155.575 250.142 155.695 249.771 155.934C249.399 156.173 249.107 156.524 248.893 156.988C248.683 157.449 248.578 158.011 248.578 158.674C248.578 159.342 248.683 159.908 248.893 160.372C249.104 160.836 249.396 161.189 249.771 161.431C250.145 161.67 250.58 161.79 251.076 161.79C251.525 161.79 251.914 161.703 252.243 161.53C252.574 161.357 252.829 161.113 253.008 160.796C253.186 160.476 253.276 160.101 253.276 159.672L253.639 159.728H251.236V158.475H254.827V159.538C254.827 160.296 254.666 160.951 254.343 161.504C254.02 162.058 253.577 162.484 253.012 162.784C252.447 163.08 251.799 163.229 251.067 163.229C250.252 163.229 249.536 163.046 248.919 162.68C248.306 162.311 247.826 161.788 247.48 161.111C247.137 160.431 246.966 159.624 246.966 158.691C246.966 157.976 247.067 157.338 247.268 156.776C247.473 156.215 247.758 155.738 248.124 155.346C248.49 154.951 248.919 154.652 249.412 154.447C249.905 154.24 250.441 154.136 251.02 154.136C251.509 154.136 251.966 154.208 252.39 154.352C252.813 154.493 253.189 154.695 253.518 154.957C253.849 155.219 254.121 155.53 254.334 155.891C254.548 156.251 254.687 156.648 254.754 157.083H253.12Z" fill="white" fill-opacity="0.3"/>
<path d="M99.7015 178.074V225.277H91.1504V186.394H90.8738L79.8334 193.447V185.61L91.5652 178.074H99.7015ZM130.886 178.074V225.277H122.335V186.394H122.059L111.018 193.447V185.61L122.75 178.074H130.886ZM150.161 218.824L149.861 221.359C149.646 223.295 149.262 225.262 148.709 227.26C148.171 229.273 147.603 231.124 147.003 232.814C146.404 234.505 145.92 235.834 145.551 236.802H139.927C140.142 235.864 140.434 234.589 140.803 232.976C141.187 231.362 141.556 229.549 141.909 227.536C142.263 225.523 142.501 223.48 142.624 221.405L142.785 218.824H150.161ZM174.42 225.923C170.993 225.923 167.951 225.347 165.292 224.194C162.65 223.042 160.575 221.467 159.069 219.469C157.579 217.456 156.841 215.174 156.857 212.624C156.841 210.641 157.271 208.821 158.147 207.161C159.023 205.502 160.206 204.119 161.697 203.012C163.203 201.891 164.878 201.176 166.721 200.869V200.546C164.294 200.008 162.327 198.771 160.821 196.835C159.331 194.884 158.593 192.633 158.608 190.082C158.593 187.654 159.269 185.488 160.637 183.582C162.004 181.677 163.879 180.179 166.261 179.088C168.642 177.981 171.362 177.428 174.42 177.428C177.447 177.428 180.144 177.981 182.51 179.088C184.892 180.179 186.766 181.677 188.134 183.582C189.517 185.488 190.208 187.654 190.208 190.082C190.208 192.633 189.448 194.884 187.926 196.835C186.42 198.771 184.477 200.008 182.095 200.546V200.869C183.939 201.176 185.598 201.891 187.074 203.012C188.564 204.119 189.747 205.502 190.623 207.161C191.514 208.821 191.96 210.641 191.96 212.624C191.96 215.174 191.207 217.456 189.701 219.469C188.195 221.467 186.121 223.042 183.478 224.194C180.85 225.347 177.831 225.923 174.42 225.923ZM174.42 219.331C176.187 219.331 177.723 219.031 179.03 218.432C180.336 217.817 181.35 216.957 182.072 215.85C182.794 214.744 183.163 213.469 183.178 212.024C183.163 210.519 182.771 209.189 182.003 208.037C181.25 206.869 180.213 205.955 178.891 205.294C177.585 204.633 176.095 204.303 174.42 204.303C172.73 204.303 171.224 204.633 169.902 205.294C168.581 205.955 167.536 206.869 166.768 208.037C166.015 209.189 165.646 210.519 165.661 212.024C165.646 213.469 165.999 214.744 166.721 215.85C167.444 216.941 168.458 217.794 169.764 218.409C171.085 219.024 172.637 219.331 174.42 219.331ZM174.42 197.826C175.864 197.826 177.14 197.534 178.246 196.95C179.368 196.367 180.251 195.552 180.896 194.507C181.542 193.462 181.872 192.256 181.888 190.889C181.872 189.536 181.55 188.353 180.92 187.339C180.29 186.31 179.414 185.518 178.292 184.965C177.17 184.397 175.88 184.112 174.42 184.112C172.929 184.112 171.616 184.397 170.478 184.965C169.357 185.518 168.481 186.31 167.851 187.339C167.236 188.353 166.937 189.536 166.952 190.889C166.937 192.256 167.244 193.462 167.874 194.507C168.519 195.537 169.403 196.351 170.525 196.95C171.662 197.534 172.96 197.826 174.42 197.826ZM201.266 225.277L221.341 185.541V185.219H198.039V178.074H230.192V185.38L210.14 225.277H201.266ZM232.975 216.519V209.719L253.004 178.074H258.674V187.754H255.217L241.734 209.12V209.489H269.692V216.519H232.975ZM255.494 225.277V214.444L255.586 211.402V178.074H263.653V225.277H255.494Z" fill="white"/>
<g filter="url(#filter2_d_28_6575)">
<path d="M51.0743 259.759C48.792 261.083 45.8609 260.309 44.6117 257.985C26.8941 225.024 22.3348 186.495 31.9789 150.215C41.623 113.936 64.7127 82.7566 96.4586 62.945C98.6969 61.5482 101.626 62.3314 102.949 64.6138C104.273 66.8961 103.49 69.8127 101.255 71.2146C71.6999 89.7513 50.2059 118.84 41.2128 152.67C32.2198 186.501 36.4322 222.422 52.8814 253.188C54.1254 255.515 53.3566 258.435 51.0743 259.759Z" fill="#FF9304"/>
</g>
<g filter="url(#filter3_d_28_6575)">
<path d="M109.112 61.2391C107.903 58.8944 108.819 56.0054 111.202 54.8721C133.235 44.3916 157.549 39.5275 181.966 40.7506C206.384 41.9737 230.09 49.2431 250.966 61.8728C253.223 63.2386 253.847 66.2047 252.408 68.4168C250.97 70.6288 248.015 71.2486 245.755 69.8879C226.296 58.1745 204.222 51.4319 181.488 50.2932C158.755 49.1545 136.118 53.6575 115.586 63.3677C113.201 64.4957 110.322 63.5837 109.112 61.2391Z" fill="#FDE006"/>
</g>
<g filter="url(#filter4_d_28_6575)">
<path d="M256.033 70.8528C257.538 68.6858 260.521 68.1434 262.638 69.7177C291.162 90.9289 311.118 121.768 318.736 156.598C326.353 191.429 321.092 227.783 304.026 258.965C302.759 261.279 299.822 262.031 297.55 260.69C295.278 259.349 294.531 256.423 295.792 254.106C311.636 225.004 316.504 191.114 309.402 158.64C302.3 126.166 283.729 97.4014 257.184 77.5696C255.071 75.9905 254.528 73.0198 256.033 70.8528Z" fill="#79FD06"/>
</g>
<path d="M63.8543 251.342C63.4783 251.556 62.999 251.425 62.7866 251.048C51.8974 231.701 46.213 209.855 46.2958 187.645C46.3796 165.174 52.3644 143.119 63.6511 123.688C74.9377 104.257 91.1303 88.1312 110.608 76.925C130.086 65.7189 152.165 59.8254 174.637 59.8346C197.108 59.8437 219.183 65.7552 238.651 76.9772C258.12 88.1992 274.299 104.338 285.57 123.779C296.841 143.219 302.808 165.279 302.873 187.75C302.938 209.96 297.236 231.801 286.331 251.139C286.118 251.516 285.639 251.647 285.263 251.432C284.887 251.217 284.757 250.738 284.969 250.361C295.738 231.261 301.369 209.69 301.305 187.755C301.24 165.558 295.346 143.768 284.213 124.565C273.08 105.362 257.099 89.4206 237.868 78.3358C218.637 67.2509 196.833 61.4117 174.636 61.4027C152.439 61.3937 130.63 67.2151 111.39 78.2842C92.1504 89.3534 76.1557 105.282 65.007 124.476C53.8583 143.669 47.9467 165.455 47.8639 187.651C47.7821 209.586 53.3954 231.162 64.1485 250.271C64.3608 250.648 64.2304 251.127 63.8543 251.342Z" fill="white" fill-opacity="0.12"/>
</g>
<defs>
<filter id="filter1_i_28_6575" x="0.65918" y="0" width="347.852" height="383.347" filterUnits="userSpaceOnUse" color-interpolation-filters="sRGB">
<feFlood flood-opacity="0" result="BackgroundImageFix"/>
<feBlend mode="normal" in="SourceGraphic" in2="BackgroundImageFix" result="shape"/>
<feColorMatrix in="SourceAlpha" type="matrix" values="0 0 0 0 0 0 0 0 0 0 0 0 0 0 0 0 0 0 127 0" result="hardAlpha"/>
<feOffset/>
<feGaussianBlur stdDeviation="12.1697"/>
<feComposite in2="hardAlpha" operator="arithmetic" k2="-1" k3="1"/>
<feColorMatrix type="matrix" values="0 0 0 0 1 0 0 0 0 1 0 0 0 0 1 0 0 0 0.12 0"/>
<feBlend mode="normal" in2="shape" result="effect1_innerShadow_28_6575"/>
</filter>
<filter id="filter2_d_28_6575" x="9.78541" y="45.009" width="111.05" height="232.635" filterUnits="userSpaceOnUse" color-interpolation-filters="sRGB">
<feFlood flood-opacity="0" result="BackgroundImageFix"/>
<feColorMatrix in="SourceAlpha" type="matrix" values="0 0 0 0 0 0 0 0 0 0 0 0 0 0 0 0 0 0 127 0" result="hardAlpha"/>
<feOffset/>
<feGaussianBlur stdDeviation="8.62024"/>
<feComposite in2="hardAlpha" operator="out"/>
<feColorMatrix type="matrix" values="0 0 0 0 1 0 0 0 0 0.580392 0 0 0 0 0.0196078 0 0 0 0.4 0"/>
<feBlend mode="normal" in2="BackgroundImageFix" result="effect1_dropShadow_28_6575"/>
<feBlend mode="normal" in="SourceGraphic" in2="effect1_dropShadow_28_6575" result="shape"/>
</filter>
<filter id="filter3_d_28_6575" x="91.3396" y="23.3253" width="179.081" height="64.5208" filterUnits="userSpaceOnUse" color-interpolation-filters="sRGB">
<feFlood flood-opacity="0" result="BackgroundImageFix"/>
<feColorMatrix in="SourceAlpha" type="matrix" values="0 0 0 0 0 0 0 0 0 0 0 0 0 0 0 0 0 0 127 0" result="hardAlpha"/>
<feOffset/>
<feGaussianBlur stdDeviation="8.62024"/>
<feComposite in2="hardAlpha" operator="out"/>
<feColorMatrix type="matrix" values="0 0 0 0 0.992157 0 0 0 0 0.878431 0 0 0 0 0.0235294 0 0 0 0.4 0"/>
<feBlend mode="normal" in2="BackgroundImageFix" result="effect1_dropShadow_28_6575"/>
<feBlend mode="normal" in="SourceGraphic" in2="effect1_dropShadow_28_6575" result="shape"/>
</filter>
<filter id="filter4_d_28_6575" x="237.937" y="51.5719" width="101.446" height="227.022" filterUnits="userSpaceOnUse" color-interpolation-filters="sRGB">
<feFlood flood-opacity="0" result="BackgroundImageFix"/>
<feColorMatrix in="SourceAlpha" type="matrix" values="0 0 0 0 0 0 0 0 0 0 0 0 0 0 0 0 0 0 127 0" result="hardAlpha"/>
<feOffset/>
<feGaussianBlur stdDeviation="8.62024"/>
<feComposite in2="hardAlpha" operator="out"/>
<feColorMatrix type="matrix" values="0 0 0 0 0.992157 0 0 0 0 0.878431 0 0 0 0 0.0235294 0 0 0 0.4 0"/>
<feBlend mode="normal" in2="BackgroundImageFix" result="effect1_dropShadow_28_6575"/>
<feBlend mode="normal" in="SourceGraphic" in2="effect1_dropShadow_28_6575" result="shape"/>
</filter>
<linearGradient id="paint0_linear_28_6575" x1="174.585" y1="0" x2="174.585" y2="383.347" gradientUnits="userSpaceOnUse">
<stop stop-color="white" stop-opacity="0.05"/>
<stop offset="0.9999" stop-opacity="0"/>
<stop offset="1" stop-color="white" stop-opacity="0"/>
</linearGradient>
<linearGradient id="paint1_linear_28_6575" x1="174.585" y1="0" x2="174.585" y2="383.347" gradientUnits="userSpaceOnUse">
<stop stop-color="white"/>
<stop offset="1" stop-color="white" stop-opacity="0"/>
</linearGradient>
<linearGradient id="paint2_linear_28_6575" x1="176.105" y1="229.197" x2="176.105" y2="339.809" gradientUnits="userSpaceOnUse">
<stop offset="0.1" stop-color="white" stop-opacity="0"/>
<stop offset="0.26" stop-color="white" stop-opacity="0.11"/>
<stop offset="0.485" stop-color="white" stop-opacity="0"/>
</linearGradient>
<linearGradient id="paint3_linear_28_6575" x1="174.584" y1="88.2307" x2="174.584" y2="112.391" gradientUnits="userSpaceOnUse">
<stop stop-color="white"/>
<stop offset="1" stop-color="#EBEBF0" stop-opacity="0"/>
</linearGradient>
<linearGradient id="paint4_linear_28_6575" x1="174.584" y1="88.2307" x2="174.584" y2="118.655" gradientUnits="userSpaceOnUse">
<stop stop-color="white"/>
<stop offset="0.735" stop-color="white" stop-opacity="0"/>
</linearGradient>
<clipPath id="clip0_28_6575">
<rect x="0.65918" width="347.852" height="383.347" fill="white"/>
</clipPath>
</defs>
</svg>
